<?xml version="1.0" encoding="iso-8859-1"?>
<!-- Generator: Adobe Illustrator 18.0.0, SVG Export Plug-In . SVG Version: 6.00 Build 0)  -->
<!DOCTYPE svg PUBLIC "-//W3C//DTD SVG 1.1//EN" "http://www.w3.org/Graphics/SVG/1.1/DTD/svg11.dtd">
<svg version="1.1" id="Capa_1" xmlns="http://www.w3.org/2000/svg" xmlns:xlink="http://www.w3.org/1999/xlink" x="0px" y="0px"
	 viewBox="0 0 297 297" style="enable-background:new 0 0 297 297;" xml:space="preserve">
<g>
	<polygon points="57.639,148.621 148.5,224.339 239.361,148.621 239.361,54.531 57.639,54.531 	"/>
	<path d="M290.939,0H6.061C2.714,0,0,2.714,0,6.061V172.24c0,1.798,0.799,3.505,2.181,4.656L144.62,295.595
		c1.124,0.936,2.502,1.405,3.88,1.405s2.756-0.469,3.88-1.405l142.439-118.699c1.382-1.151,2.181-2.858,2.181-4.656V6.061
		C297,2.714,294.286,0,290.939,0z M256.535,152.643c0,2.548-1.132,4.965-3.09,6.597l-99.448,82.873
		c-1.592,1.327-3.545,1.99-5.497,1.99s-3.905-0.663-5.497-1.99L43.555,159.24c-1.958-1.632-3.09-4.049-3.09-6.597V45.945
		c0-4.742,3.844-8.587,8.587-8.587h198.896c4.742,0,8.587,3.844,8.587,8.587V152.643z"/>
</g>
<g>
</g>
<g>
</g>
<g>
</g>
<g>
</g>
<g>
</g>
<g>
</g>
<g>
</g>
<g>
</g>
<g>
</g>
<g>
</g>
<g>
</g>
<g>
</g>
<g>
</g>
<g>
</g>
<g>
</g>
</svg>
